<?xml version="1.0" encoding="utf-8"?>
<!DOCTYPE svg PUBLIC "-//W3C//DTD SVG 20010904//EN" "http://www.w3.org/TR/2001/REC-SVG-20010904/DTD/svg10.dtd">
<svg xmlns="http://www.w3.org/2000/svg" xml:space="preserve" xmlns:xlink="http://www.w3.org/1999/xlink" width="400" height="400" viewBox="0 0 400 400">
<desc></desc>
<rect width="400" height="400" fill="#ffffff" cx="0" cy="0" />
<defs>
<rect id="p" width="16" height="16" />
<circle id="circle" r="8" stroke-width="0" fill="fffbfb" />
<rect id="hor" width="16" height="4" />
<rect id="ver" width="4" height="16" />
<polygon id="3d1" points="0,0 16,0 0,16" stroke-width="0" fill="fffbfb" />
<polygon id="3d2" points="0,16 16,0 16,16" stroke-width="0" fill="#fffdfd" />
</defs>
<g fill="#fffbfb">
<use x="32" y="32" xlink:href="#p" />
<use x="48" y="32" xlink:href="#p" />
<use x="64" y="32" xlink:href="#p" />
<use x="80" y="32" xlink:href="#p" />
<use x="96" y="32" xlink:href="#p" />
<use x="112" y="32" xlink:href="#p" />
<use x="128" y="32" xlink:href="#p" />
<use x="160" y="32" xlink:href="#p" />
<use x="192" y="32" xlink:href="#p" />
<use x="208" y="32" xlink:href="#p" />
<use x="224" y="32" xlink:href="#p" />
<use x="256" y="32" xlink:href="#p" />
<use x="272" y="32" xlink:href="#p" />
<use x="288" y="32" xlink:href="#p" />
<use x="304" y="32" xlink:href="#p" />
<use x="320" y="32" xlink:href="#p" />
<use x="336" y="32" xlink:href="#p" />
<use x="352" y="32" xlink:href="#p" />
<use x="32" y="48" xlink:href="#p" />
<use x="128" y="48" xlink:href="#p" />
<use x="192" y="48" xlink:href="#p" />
<use x="256" y="48" xlink:href="#p" />
<use x="352" y="48" xlink:href="#p" />
<use x="32" y="64" xlink:href="#p" />
<use x="64" y="64" xlink:href="#p" />
<use x="80" y="64" xlink:href="#p" />
<use x="96" y="64" xlink:href="#p" />
<use x="128" y="64" xlink:href="#p" />
<use x="208" y="64" xlink:href="#p" />
<use x="256" y="64" xlink:href="#p" />
<use x="288" y="64" xlink:href="#p" />
<use x="304" y="64" xlink:href="#p" />
<use x="320" y="64" xlink:href="#p" />
<use x="352" y="64" xlink:href="#p" />
<use x="32" y="80" xlink:href="#p" />
<use x="64" y="80" xlink:href="#p" />
<use x="80" y="80" xlink:href="#p" />
<use x="96" y="80" xlink:href="#p" />
<use x="128" y="80" xlink:href="#p" />
<use x="176" y="80" xlink:href="#p" />
<use x="192" y="80" xlink:href="#p" />
<use x="224" y="80" xlink:href="#p" />
<use x="256" y="80" xlink:href="#p" />
<use x="288" y="80" xlink:href="#p" />
<use x="304" y="80" xlink:href="#p" />
<use x="320" y="80" xlink:href="#p" />
<use x="352" y="80" xlink:href="#p" />
<use x="32" y="96" xlink:href="#p" />
<use x="64" y="96" xlink:href="#p" />
<use x="80" y="96" xlink:href="#p" />
<use x="96" y="96" xlink:href="#p" />
<use x="128" y="96" xlink:href="#p" />
<use x="160" y="96" xlink:href="#p" />
<use x="208" y="96" xlink:href="#p" />
<use x="256" y="96" xlink:href="#p" />
<use x="288" y="96" xlink:href="#p" />
<use x="304" y="96" xlink:href="#p" />
<use x="320" y="96" xlink:href="#p" />
<use x="352" y="96" xlink:href="#p" />
<use x="32" y="112" xlink:href="#p" />
<use x="128" y="112" xlink:href="#p" />
<use x="160" y="112" xlink:href="#p" />
<use x="176" y="112" xlink:href="#p" />
<use x="192" y="112" xlink:href="#p" />
<use x="208" y="112" xlink:href="#p" />
<use x="256" y="112" xlink:href="#p" />
<use x="352" y="112" xlink:href="#p" />
<use x="32" y="128" xlink:href="#p" />
<use x="48" y="128" xlink:href="#p" />
<use x="64" y="128" xlink:href="#p" />
<use x="80" y="128" xlink:href="#p" />
<use x="96" y="128" xlink:href="#p" />
<use x="112" y="128" xlink:href="#p" />
<use x="128" y="128" xlink:href="#p" />
<use x="160" y="128" xlink:href="#p" />
<use x="192" y="128" xlink:href="#p" />
<use x="224" y="128" xlink:href="#p" />
<use x="256" y="128" xlink:href="#p" />
<use x="272" y="128" xlink:href="#p" />
<use x="288" y="128" xlink:href="#p" />
<use x="304" y="128" xlink:href="#p" />
<use x="320" y="128" xlink:href="#p" />
<use x="336" y="128" xlink:href="#p" />
<use x="352" y="128" xlink:href="#p" />
<use x="192" y="144" xlink:href="#p" />
<use x="208" y="144" xlink:href="#p" />
<use x="48" y="160" xlink:href="#p" />
<use x="64" y="160" xlink:href="#p" />
<use x="80" y="160" xlink:href="#p" />
<use x="96" y="160" xlink:href="#p" />
<use x="112" y="160" xlink:href="#p" />
<use x="128" y="160" xlink:href="#p" />
<use x="144" y="160" xlink:href="#p" />
<use x="192" y="160" xlink:href="#p" />
<use x="208" y="160" xlink:href="#p" />
<use x="272" y="160" xlink:href="#p" />
<use x="288" y="160" xlink:href="#p" />
<use x="352" y="160" xlink:href="#p" />
<use x="64" y="176" xlink:href="#p" />
<use x="80" y="176" xlink:href="#p" />
<use x="112" y="176" xlink:href="#p" />
<use x="144" y="176" xlink:href="#p" />
<use x="176" y="176" xlink:href="#p" />
<use x="208" y="176" xlink:href="#p" />
<use x="240" y="176" xlink:href="#p" />
<use x="256" y="176" xlink:href="#p" />
<use x="304" y="176" xlink:href="#p" />
<use x="32" y="192" xlink:href="#p" />
<use x="48" y="192" xlink:href="#p" />
<use x="96" y="192" xlink:href="#p" />
<use x="112" y="192" xlink:href="#p" />
<use x="128" y="192" xlink:href="#p" />
<use x="160" y="192" xlink:href="#p" />
<use x="192" y="192" xlink:href="#p" />
<use x="256" y="192" xlink:href="#p" />
<use x="272" y="192" xlink:href="#p" />
<use x="48" y="208" xlink:href="#p" />
<use x="80" y="208" xlink:href="#p" />
<use x="112" y="208" xlink:href="#p" />
<use x="144" y="208" xlink:href="#p" />
<use x="160" y="208" xlink:href="#p" />
<use x="208" y="208" xlink:href="#p" />
<use x="224" y="208" xlink:href="#p" />
<use x="240" y="208" xlink:href="#p" />
<use x="256" y="208" xlink:href="#p" />
<use x="304" y="208" xlink:href="#p" />
<use x="80" y="224" xlink:href="#p" />
<use x="96" y="224" xlink:href="#p" />
<use x="128" y="224" xlink:href="#p" />
<use x="160" y="224" xlink:href="#p" />
<use x="192" y="224" xlink:href="#p" />
<use x="224" y="224" xlink:href="#p" />
<use x="272" y="224" xlink:href="#p" />
<use x="320" y="224" xlink:href="#p" />
<use x="160" y="240" xlink:href="#p" />
<use x="208" y="240" xlink:href="#p" />
<use x="272" y="240" xlink:href="#p" />
<use x="320" y="240" xlink:href="#p" />
<use x="352" y="240" xlink:href="#p" />
<use x="32" y="256" xlink:href="#p" />
<use x="48" y="256" xlink:href="#p" />
<use x="64" y="256" xlink:href="#p" />
<use x="80" y="256" xlink:href="#p" />
<use x="96" y="256" xlink:href="#p" />
<use x="112" y="256" xlink:href="#p" />
<use x="128" y="256" xlink:href="#p" />
<use x="160" y="256" xlink:href="#p" />
<use x="240" y="256" xlink:href="#p" />
<use x="288" y="256" xlink:href="#p" />
<use x="304" y="256" xlink:href="#p" />
<use x="320" y="256" xlink:href="#p" />
<use x="32" y="272" xlink:href="#p" />
<use x="128" y="272" xlink:href="#p" />
<use x="160" y="272" xlink:href="#p" />
<use x="192" y="272" xlink:href="#p" />
<use x="224" y="272" xlink:href="#p" />
<use x="272" y="272" xlink:href="#p" />
<use x="288" y="272" xlink:href="#p" />
<use x="320" y="272" xlink:href="#p" />
<use x="336" y="272" xlink:href="#p" />
<use x="32" y="288" xlink:href="#p" />
<use x="64" y="288" xlink:href="#p" />
<use x="80" y="288" xlink:href="#p" />
<use x="96" y="288" xlink:href="#p" />
<use x="128" y="288" xlink:href="#p" />
<use x="160" y="288" xlink:href="#p" />
<use x="176" y="288" xlink:href="#p" />
<use x="224" y="288" xlink:href="#p" />
<use x="240" y="288" xlink:href="#p" />
<use x="288" y="288" xlink:href="#p" />
<use x="304" y="288" xlink:href="#p" />
<use x="320" y="288" xlink:href="#p" />
<use x="32" y="304" xlink:href="#p" />
<use x="64" y="304" xlink:href="#p" />
<use x="80" y="304" xlink:href="#p" />
<use x="96" y="304" xlink:href="#p" />
<use x="128" y="304" xlink:href="#p" />
<use x="160" y="304" xlink:href="#p" />
<use x="192" y="304" xlink:href="#p" />
<use x="208" y="304" xlink:href="#p" />
<use x="224" y="304" xlink:href="#p" />
<use x="240" y="304" xlink:href="#p" />
<use x="256" y="304" xlink:href="#p" />
<use x="304" y="304" xlink:href="#p" />
<use x="32" y="320" xlink:href="#p" />
<use x="64" y="320" xlink:href="#p" />
<use x="80" y="320" xlink:href="#p" />
<use x="96" y="320" xlink:href="#p" />
<use x="128" y="320" xlink:href="#p" />
<use x="160" y="320" xlink:href="#p" />
<use x="176" y="320" xlink:href="#p" />
<use x="192" y="320" xlink:href="#p" />
<use x="224" y="320" xlink:href="#p" />
<use x="256" y="320" xlink:href="#p" />
<use x="272" y="320" xlink:href="#p" />
<use x="32" y="336" xlink:href="#p" />
<use x="128" y="336" xlink:href="#p" />
<use x="160" y="336" xlink:href="#p" />
<use x="192" y="336" xlink:href="#p" />
<use x="208" y="336" xlink:href="#p" />
<use x="224" y="336" xlink:href="#p" />
<use x="240" y="336" xlink:href="#p" />
<use x="256" y="336" xlink:href="#p" />
<use x="304" y="336" xlink:href="#p" />
<use x="32" y="352" xlink:href="#p" />
<use x="48" y="352" xlink:href="#p" />
<use x="64" y="352" xlink:href="#p" />
<use x="80" y="352" xlink:href="#p" />
<use x="96" y="352" xlink:href="#p" />
<use x="112" y="352" xlink:href="#p" />
<use x="128" y="352" xlink:href="#p" />
<use x="192" y="352" xlink:href="#p" />
<use x="224" y="352" xlink:href="#p" />
<use x="272" y="352" xlink:href="#p" />
<use x="320" y="352" xlink:href="#p" />
<use x="336" y="352" xlink:href="#p" />
</g>
</svg>